Coordinates
version=1
nRows=8
nColumns=63
inDegrees=yes

Units are S.I. units (second, meters, Newtons, ...)
If the header above contains a line with 'inDegrees', this indicates whether rotational values are in degrees (yes) or radians (no).

endheader
time	pelvis_tilt	pelvis_list	pelvis_rotation	pelvis_tx	pelvis_ty	pelvis_tz	hip_flexion_r	hip_adduction_r	hip_rotation_r	knee_angle_r	knee_angle_r_beta	ankle_angle_r	subtalar_angle_r	mtp_angle_r	hip_flexion_l	hip_adduction_l	hip_rotation_l	knee_angle_l	knee_angle_l_beta	ankle_angle_l	subtalar_angle_l	mtp_angle_l	L5_S1_Flex_Ext	L5_S1_Lat_Bending	L5_S1_axial_rotation	L4_L5_Flex_Ext	L4_L5_Lat_Bending	L4_L5_axial_rotation	L3_L4_Flex_Ext	L3_L4_Lat_Bending	L3_L4_axial_rotation	L2_L3_Flex_Ext	L2_L3_Lat_Bending	L2_L3_axial_rotation	L1_L2_Flex_Ext	L1_L2_Lat_Bending	L1_L2_axial_rotation	L1_T12_Flex_Ext	L1_T12_Lat_Bending	L1_T12_axial_rotation	Abs_r3	Abs_r2	Abs_r1	Abs_t1	Abs_t2	neck_flexion	neck_bending	neck_rotation	arm_flex_r	arm_add_r	arm_rot_r	elbow_flex_r	pro_sup_r	wrist_flex_r	wrist_dev_r	arm_flex_l	arm_add_l	arm_rot_l	elbow_flex_l	pro_sup_l	wrist_flex_l	wrist_dev_l
0.000000	1.670291	-6.634866	93.664906	-0.003933	1.042416	0.464445	-0.870509	2.005086	8.339298	0.443530	0.007741	19.462935	-5.091386	0.000000	1.012382	-4.620756	13.624239	1.364310	0.023812	21.229947	-3.443806	0.000000	0.131195	0.232499	0.169556	0.243642	0.309224	0.180154	0.215540	0.565299	0.180154	0.149943	0.565299	0.148362	0.121828	0.474113	0.137764	0.074965	0.360141	0.127167	0.937113	2.630079	0.943021	0.000000	0.000000	25.024482	2.128870	-1.947762	5.712622	-12.549319	44.455446	55.925356	2.258384	-20.132532	16.095458	20.166103	-8.107197	67.617745	49.261568	58.782748	7.439442	6.749032
0.016949	1.907019	-6.131403	93.201573	-0.002561	1.044364	0.462568	-1.563115	2.338991	7.827434	0.394096	0.006878	18.725743	-3.917415	0.000000	0.174123	-4.970442	13.632976	1.188485	0.020743	21.666134	-3.678178	0.000000	0.086377	0.273070	0.150910	0.160411	0.363183	0.160342	0.141909	0.663942	0.160342	0.098721	0.663942	0.132047	0.080210	0.556844	0.122615	0.049356	0.422985	0.113183	0.616984	3.089022	0.839319	0.000000	0.000000	23.692513	1.945811	-0.683500	5.405081	-11.733994	44.785974	54.802065	1.925194	-20.239969	19.493001	19.813981	-8.672010	68.842622	49.701266	60.934376	5.806660	7.852232
0.033898	2.092469	-5.729049	92.836326	-0.001524	1.045957	0.461010	-2.132687	2.596048	7.388072	0.357263	0.006235	18.094804	-2.942229	0.000000	-0.495663	-5.240717	13.651965	1.047648	0.018285	21.988599	-3.896577	0.000000	0.051316	0.305876	0.141111	0.095299	0.406814	0.149930	0.084307	0.743706	0.149930	0.058649	0.743706	0.123472	0.047652	0.623741	0.114652	0.029322	0.473801	0.105833	0.366545	3.460125	0.784815	0.000000	0.000000	22.673778	1.790706	0.309648	5.088608	-11.092319	45.138912	53.914580	1.697333	-20.109872	22.046558	19.455712	-9.132139	69.825925	50.056953	62.581467	4.245291	8.570762
0.050847	2.231047	-5.418934	92.559102	-0.000789	1.047227	0.459746	-2.589028	2.782939	7.017159	0.331849	0.005792	17.563226	-2.148198	0.000000	-1.011777	-5.438554	13.678054	0.938818	0.016385	22.209398	-4.098304	0.000000	0.025103	0.331550	0.139517	0.046620	0.440962	0.148237	0.041243	0.806132	0.148237	0.028691	0.806132	0.122077	0.023311	0.676098	0.113358	0.014344	0.513572	0.104638	0.179312	3.750564	0.775951	0.000000	0.000000	21.938317	1.661412	1.054928	4.766301	-10.607187	45.505934	53.239705	1.564371	-19.769685	23.830814	19.097458	-9.495587	70.592946	50.334274	63.769800	2.764503	8.951980
0.067797	2.327158	-5.192192	92.359838	-0.000324	1.048204	0.458754	-2.941938	2.906346	6.710643	0.316671	0.005527	17.124118	-1.517692	0.000000	-1.389023	-5.570920	13.708094	0.859019	0.014993	22.340588	-4.282661	0.000000	0.006832	0.350729	0.145489	0.012687	0.466470	0.154583	0.011224	0.852763	0.154583	0.007808	0.852763	0.127303	0.006344	0.715207	0.118210	0.003904	0.543279	0.109117	0.048798	3.967518	0.809169	0.000000	0.000000	21.456166	1.555787	1.575586	4.441255	-10.261492	45.878715	52.754244	1.515876	-19.246853	24.920454	18.745383	-9.770359	71.168975	50.538875	64.545150	1.373465	9.043242
0.084746	2.385209	-5.039953	92.228472	-0.000097	1.048920	0.458011	-3.201219	2.972952	6.464471	0.310546	0.005420	16.770590	-1.033082	0.000000	-1.642203	-5.644787	13.738933	0.805271	0.014055	22.394223	-4.448952	0.000000	-0.004407	0.364046	0.158388	-0.008184	0.484181	0.168288	-0.007240	0.885142	0.168288	-0.005037	0.885142	0.138590	-0.004092	0.742363	0.128690	-0.002518	0.563908	0.118791	-0.031479	4.118163	0.880908	0.000000	0.000000	21.197363	1.471687	1.894867	4.116566	-10.038127	46.248932	52.435003	1.541417	-18.568820	25.390162	18.405649	-9.964459	71.579302	50.676399	64.953294	0.081345	8.891907
0.101695	2.409606	-4.953350	92.154940	-0.000075	1.049406	0.457493	-3.376674	2.989438	6.274590	0.312291	0.005451	16.495748	-0.676737	0.000000	-1.786120	-5.667124	13.767421	0.774597	0.013519	22.382360	-4.596479	0.000000	-0.009521	0.372136	0.177573	-0.017681	0.494941	0.188672	-0.015641	0.904812	0.188672	-0.010881	0.904812	0.155377	-0.008841	0.758860	0.144278	-0.005440	0.576439	0.133180	-0.068005	4.209678	0.987610	0.000000	0.000000	21.131946	1.406971	2.036017	3.795328	-9.919986	46.608260	52.258784	1.630565	-17.763030	25.314624	18.084418	-10.085892	71.849218	50.752490	65.040008	-1.102690	8.545332
0.118644	2.404754	-4.923515	92.129179	-0.000227	1.049693	0.457179	-3.478104	2.962487	6.136946	0.320724	0.005598	16.292702	-0.431027	0.000000	-1.835576	-5.644902	13.790408	0.764018	0.013335	22.317055	-4.724543	0.000000	-0.009417	0.375633	0.202405	-0.017488	0.499592	0.215055	-0.015471	0.913315	0.215055	-0.010763	0.913315	0.177104	-0.008745	0.765991	0.164454	-0.005381	0.581856	0.151804	-0.067264	4.249239	1.125716	0.000000	0.000000	21.229954	1.359495	2.022281	3.480638	-9.889963	46.948374	52.202392	1.772887	-16.856928	24.768525	17.787853	-10.142662	72.004014	50.772794	64.851070	-2.169470	8.050874
